/* XPM */
static char *_82882404a814ce3a487b7f63284aa6dKSsHQRjJ9aUfeOdA[] = {
/* columns rows colors chars-per-pixel */
"32 32 188 2 ",
"   c None",
".  c #5B11C6",
"X  c #5F11D1",
"o  c #6414D3",
"O  c #6F1FD4",
"+  c #6411DC",
"@  c #6916DA",
"#  c #6C18DA",
"$  c #7019DD",
"%  c #6B14E3",
"&  c #6F18E6",
"*  c #6E14EA",
"=  c #6F18EA",
"-  c #7016E7",
";  c #751AE6",
":  c #7316EA",
">  c #7B16EF",
",  c #731AEA",
"<  c #7E1EEC",
"1  c #7516F2",
"2  c #7815F2",
"3  c #7B1AF2",
"4  c #7E21E1",
"5  c #8B2FD9",
"6  c #8831DD",
"7  c #801CEF",
"8  c #8417F7",
"9  c #831BF2",
"0  c #8517FD",
"q  c #8C1AFE",
"w  c #841CFB",
"e  c #8223E6",
"r  c #8329E6",
"t  c #882CE7",
"y  c #8423EC",
"u  c #8529E9",
"i  c #8C29EE",
"p  c #912FE5",
"a  c #932DEE",
"s  c #9929EF",
"d  c #8E31E8",
"f  c #8D38E2",
"g  c #9633EB",
"h  c #9B35EF",
"j  c #9939EE",
"k  c #8420F1",
"l  c #8924F2",
"z  c #8C29F4",
"x  c #8D26F9",
"c  c #9B2AF3",
"v  c #9523FF",
"b  c #942BFB",
"n  c #9B2CFD",
"m  c #9B3AF0",
"M  c #9E33FE",
"N  c #9733F5",
"B  c #A22CF5",
"V  c #A42CFD",
"C  c #AD2DFE",
"Z  c #B22DFE",
"A  c #BB2EFF",
"S  c #A137F3",
"D  c #A53AF5",
"F  c #A434FC",
"G  c #AC34FE",
"H  c #A53BFF",
"J  c #AB3CFC",
"K  c #B535FF",
"L  c #BB33FF",
"P  c #B43AFE",
"I  c #BB3CFF",
"U  c #D02FFF",
"Y  c #C331FF",
"T  c #CA34FF",
"R  c #C23DFF",
"E  c #CC3CFD",
"W  c #D132FF",
"Q  c #D43CFF",
"!  c #DD3FFF",
"~  c #EB3BFF",
"^  c #9441E1",
"/  c #9A46F4",
"(  c #AC43FC",
")  c #AD4BF5",
"_  c #B540F3",
"`  c #B441FF",
"'  c #BD43FF",
"]  c #B44AFC",
"[  c #BA49FE",
"{  c #B14BF3",
"}  c #A651F4",
"|  c #AC51F3",
" . c #BB5DF4",
".. c #BC52FC",
"X. c #B55DFD",
"o. c #BB5BFC",
"O. c #B353F5",
"+. c #BE63FC",
"@. c #C344FF",
"#. c #CB45FE",
"$. c #C34BFE",
"%. c #CB4CFD",
"&. c #D647FB",
"*. c #DB43FE",
"=. c #D44BFE",
"-. c #D94AFF",
";. c #C453FE",
":. c #CC53FE",
">. c #C55BFE",
",. c #CC5AFF",
"<. c #D353FF",
"1. c #DB55FE",
"2. c #D25DFE",
"3. c #DC5FFE",
"4. c #E447FF",
"5. c #EE42FF",
"6. c #ED4DFF",
"7. c #EB54FE",
"8. c #E35CFE",
"9. c #E354FD",
"0. c #C563FE",
"q. c #CC63FE",
"w. c #CC6CFF",
"e. c #D463FF",
"r. c #DD62FF",
"t. c #D46BFF",
"y. c #DC6AFF",
"u. c #CC74FD",
"i. c #CF7FF9",
"p. c #D473FF",
"a. c #DC73FE",
"s. c #D27CFE",
"d. c #E363FF",
"f. c #EC64FF",
"g. c #E469FF",
"h. c #EB6AFF",
"j. c #F267FF",
"k. c #FB65FF",
"l. c #F46AFF",
"z. c #FD6DFF",
"x. c #E473FE",
"c. c #ED73FF",
"v. c #E679FF",
"b. c #EB7CFF",
"n. c #F274FF",
"m. c #FD71FF",
"M. c #D485FC",
"N. c #DC80FF",
"B. c #D589FF",
"V. c #DC8DFF",
"C. c #DA98FF",
"Z. c #E384FE",
"A. c #EF83FF",
"S. c #E38FFF",
"D. c #ED8BFE",
"F. c #FD87FF",
"G. c #F48FFF",
"H. c #FF8DFF",
"J. c #E293FF",
"K. c #EC94FF",
"L. c #EF99FE",
"P. c #F493FF",
"I. c #F49BFF",
"U. c #F89BFF",
"Y. c #E4A0FF",
"T. c #E5A8FF",
"R. c #F5A4FF",
"E. c #FBA0FF",
"W. c #FEA1FF",
"Q. c #FEA6FF",
"!. c #FAA5FF",
"~. c #F7AAFF",
"^. c #F4AEFE",
"/. c #FBADFF",
"(. c #F9AAFF",
"). c #E3B1FF",
"_. c #F7B4FF",
"`. c #FAB2FF",
"'. c #F0B9FF",
"]. c #FEBFFF",
"[. c #EEC5FF",
"{. c #F5C3FE",
"}. c #FAC7FF",
"|. c #F3CBFF",
" X c #FED1FF",
".X c #F1DAFF",
"XX c #FEEAFF",
"oX c #FFFBFF",
/* pixels */
"                              {.^.                              ",
"                          7.A._._.y.9.                          ",
"                      f.*.&.I.`.`.L.#.1.n.                      ",
"                  b.8.&.E x./././.(.2.%.3.v.~.                  ",
"              A.h.8.-.E %.R.!.Q.Q.Q.I.;.,.2.y.D.R.              ",
"          K.v.d.r.1.=.#.D.E.W.W.W.E.U.a.>.q.e.y.g.v.b.          ",
"        Z.y.y.y.r.<.#.y.I.I.U.U.I.P.K.S.p.M.t.t.x.x.x.x.v.      ",
"  '.J.p.p.p.p.p.t.e.a.I.L.L.K.J.S.V.J.T.|.[.Y.N.a.v.v.v.v.Z.R.  ",
"a.2.;.;.>.>.>.0.w.w.I.P.G.P.P.P.P.P.~.}.XXoX.X).B.u.+...] ] $.s.",
"J.#.@.' I P P G G ;.c.l.l.l.k.k.k.k.z.H.]. XC...P K P G J P @.|.",
"0.t.$.` P P P G [ b.h.l.l.l.k.z.z.z.k.z.H.F.b.I I I R R ' @.J.V.",
";.o.,.' J J J J y.g.h.c.l.l.z.z.z.k.k.k.m.z.z.%.I @.@.@.#.a.X.w.",
">.F >.%.` J J ] y.g.h.h.l.m.m.z.k.k.k.z.z.z.z.f.@.@.@.#.1.+.F q.",
";.F F ..@.J ] t.y.g.h.z.m.m.l.l.l.l.z.z.z.z.z.z.e.@.#.=.>.M P ,.",
":.G F F $.[ w.e.r.g.z.m.z.l.h.f.l.m.z.z.z.z.z.l.h.;.' 2.H F I :.",
"=.K G F J Z.t.2.d.l.z.l.h.h.h.l.z.z.z.z.z.z.l.f.f.v.:.H F G R <.",
"! Y K G H 0.2.d.f.j.d.r.d.g.l.z.z.z.z.z.l.l.f.f.d.r.u.M G L T #.",
"~ W L K ( / t.d.d.r.e.r.d.n.m.z.z.z.l.l.j.f.f.f.3.0.} ] K L T *.",
"5.W L ' N z | r.2.2.2.d.l.l.l.l.l.j.j.f.f.f.f.3.,.X.u | ` L U 4.",
"6.Q ' ( b b z o.,.,.r.h.f.f.f.f.f.f.f.f.h.d.2.,.w.b z u ) R Q 7.",
"7.E ..n n n n m q.r.d.d.d.f.f.f.f.f.d.d.d.2.,.t.J b n i a $.T h.",
"f.:.S n V V V c >.d.d.d.d.d.d.d.d.d.d.r.,.>.0.>.V V n n a S R A.",
"P.{ s V C C C C D a.r.r.r.d.d.d.d.d.e.>.>.>.u.G C Z Z G B s B D.",
"i.c c B C Z Z C B  .d.r.r.r.r.r.r.2.>.>.>.u. .B Z A A Z C B c O.",
"  l < y y i i i a j  .5 p g h h g d d 6 ^ M...( ( D h a u e e   ",
"      l k 2 2 2 > : < 4 + % = * + % X . f r ; ; & - , y N       ",
"        V v q 0 0 8 > y ; , 1 * * % o O e ; < 3 3 z J           ",
"              I V q q 9 l 1 : - : @ o t < 9 w n [               ",
"                  1.` n 9 9 - 1 # @ r 7 x M >.                  ",
"                      %.V 9 3 % @ $ k x F e.                    ",
"                          G c # @ k M                           ",
"                              _ e                               "
};
