/* XPM */
static char *_0a195cbf2f54c148e7528ea9269e8ddFgoxYUjDiiHutNX8[] = {
/* columns rows colors chars-per-pixel */
"32 32 188 2 ",
"   c None",
".  c #5C10CB",
"X  c #6715D9",
"o  c #6A15DC",
"O  c #741BDC",
"+  c #772BCE",
"@  c #7024D5",
"#  c #7C2CDA",
"$  c #6C15E4",
"%  c #6E13EA",
"&  c #7216EB",
"*  c #741BEC",
"=  c #7818EA",
"-  c #7516F1",
";  c #7D17F4",
":  c #7C15F9",
">  c #7B22E4",
",  c #7F2BE4",
"<  c #7C21E9",
"1  c #842ED7",
"2  c #802DDE",
"3  c #863BD9",
"4  c #801DEF",
"5  c #8016F1",
"6  c #851FF3",
"7  c #881CF3",
"8  c #8A17FC",
"9  c #831DFA",
"0  c #8C18FF",
"q  c #882FE5",
"w  c #8423EE",
"e  c #852BEA",
"r  c #8B2BEB",
"t  c #832DE6",
"y  c #9929EF",
"u  c #8A30E7",
"i  c #8D39E7",
"p  c #8732EA",
"a  c #8A33EA",
"s  c #9530EF",
"d  c #9E3FEF",
"f  c #933AED",
"g  c #8522F3",
"h  c #8B25F4",
"j  c #8F29F2",
"k  c #8927FA",
"l  c #8F2AFC",
"z  c #932AF7",
"x  c #9B2BF3",
"c  c #952AFC",
"v  c #9A2BFC",
"b  c #8C32F6",
"n  c #9433F5",
"m  c #933AF4",
"M  c #9D3FF2",
"N  c #9E33FC",
"B  c #A22BFD",
"V  c #AC2DFD",
"C  c #A22BF5",
"Z  c #B32CFF",
"A  c #BC2DFF",
"S  c #A333FD",
"D  c #AB34FD",
"F  c #A73DFB",
"G  c #AB3CFD",
"H  c #A532F2",
"J  c #B433FF",
"K  c #B934FF",
"L  c #B23BFE",
"P  c #BB3BFE",
"I  c #C333FF",
"U  c #CC33FF",
"Y  c #C43DFC",
"T  c #CD3DFF",
"R  c #EC3FFE",
"E  c #9F57ED",
"W  c #A953E8",
"Q  c #A646F5",
"!  c #AC42FB",
"~  c #AC4BFF",
"^  c #A244FC",
"/  c #B746F0",
"(  c #B04FF6",
")  c #B640FD",
"_  c #BB43FF",
"`  c #B74EFF",
"'  c #B949FF",
"]  c #A653F1",
"[  c #AE51F3",
"{  c #AA54FD",
"}  c #B55FF5",
"|  c #B354FC",
" . c #BD54FE",
".. c #B55BFD",
"X. c #BC5AFE",
"o. c #B966FA",
"O. c #BB6AF8",
"+. c #BC73FA",
"@. c #C343FF",
"#. c #CD45FD",
"$. c #CC4BFF",
"%. c #D345FE",
"&. c #DD4BFE",
"*. c #C554FD",
"=. c #CA52FD",
"-. c #C55CFE",
";. c #CB5CFE",
":. c #D453FF",
">. c #DA52FF",
",. c #D25CFF",
"<. c #D95DFF",
"1. c #E34FFF",
"2. c #EA48FF",
"3. c #EB54FE",
"4. c #E75CFD",
"5. c #C662FF",
"6. c #CC64FE",
"7. c #C66FFF",
"8. c #CB6CFD",
"9. c #D363FE",
"0. c #DD62FF",
"q. c #D36BFF",
"w. c #DC6BFE",
"e. c #C47DF6",
"r. c #C676FF",
"t. c #CD7DFF",
"y. c #D271FC",
"u. c #DA76FF",
"i. c #D47EFD",
"p. c #DA7BFE",
"a. c #E363FF",
"s. c #EB64FF",
"d. c #E36AFF",
"f. c #EC6AFF",
"g. c #F267FF",
"h. c #FC65FF",
"j. c #F46BFF",
"k. c #FD6DFF",
"l. c #E572FF",
"z. c #EC70FE",
"x. c #E67AFF",
"c. c #EC79FE",
"v. c #FF71FE",
"b. c #F77DFF",
"n. c #C98FFD",
"m. c #C486F2",
"M. c #D482FE",
"N. c #DE85FF",
"B. c #D28FFF",
"V. c #DD8DFF",
"C. c #DD95FF",
"Z. c #E284FE",
"A. c #EC84FF",
"S. c #E28EFD",
"D. c #EB8FFE",
"F. c #F484FF",
"G. c #FD83FF",
"H. c #F58FFF",
"J. c #E594FF",
"K. c #EC93FF",
"L. c #E29EFF",
"P. c #EA9BFC",
"I. c #F394FF",
"U. c #F49AFF",
"Y. c #FA9BFF",
"T. c #D6A4FF",
"R. c #E4A3FF",
"E. c #EBA8FE",
"W. c #F4A3FF",
"Q. c #FEA2FF",
"!. c #FBA7FF",
"~. c #FEA5FF",
"^. c #F8A3FF",
"/. c #F7AEFF",
"(. c #F2ABFE",
"). c #FAA8FE",
"_. c #E0B9FF",
"`. c #EEBDFF",
"'. c #F7B2FF",
"]. c #FBB1FF",
"[. c #FCB1FF",
"{. c #FBBBFF",
"}. c #EFCAFF",
"|. c #F5C0FE",
" X c #F5CFFF",
".X c #EFDAFF",
"XX c #FCD4FF",
"oX c #FFF6FF",
/* pixels */
"                                                                ",
"                                                                ",
"                              |.(.                              ",
"                          3.c.'.{.w.4.                          ",
"                      z.&.#.W.].[.P.#.0.I.                      ",
"                  F.a.%.Y S.).!.!.~.9.=.,.Z./.                  ",
"              K.l.a.>.%.,.^.~.~.Q.Q.D.*.;.9.d.A.A.              ",
"          E.Z.w.0.<.:.#.D.U.Y.Y.U.U.K.i.i.8.q.l.l.l.x.          ",
"      `.V.q.q.6.9.q.w.J.U.K.K.J.S.V.C.`. XL.u.w.l.l.l.x./.      ",
"    C.9.-.5.8.7.r.t.N.W.H.H.H.F.F.H.].XXoX.X_.T.n.+.+.o._ T.    ",
"    V.$.@._ L L D D x.f.g.j.h.h.h.h.v.Y.{.R.' L P P L L 6. X    ",
"    -.M.@.L L L L 8.f.f.j.j.h.k.k.h.h.k.G.b._ P Y @.@.#.C.B.    ",
"    -.| 6._ G F ! w.d.f.f.k.v.k.h.h.h.k.k.k.a.@.@.@.#.p.{ M.    ",
"    5.S | =.L ! 6.w.d.f.k.v.k.j.g.j.k.k.k.k.k.*.@.#.0.{ D y.    ",
"    6.D S  ._ 8.9.0.f.k.v.j.f.f.g.k.k.k.k.k.j.x.' $.X.S L q.    ",
"    9.J D N M.q.,.s.j.k.f.d.f.g.k.k.k.k.h.j.f.s.Z. .N D P 0.    ",
"    &.I J S ..9.a.f.f.0.0.a.j.k.k.k.k.j.g.f.s.a.u...S K I :.    ",
"    R U K ` b 8.a.0.,.9.0.j.j.k.k.j.g.g.s.s.a.,.o.] ` J U 1.    ",
"    2.U _ ^ l m 8.;.;.0.f.g.g.g.g.g.s.s.s.a.,.8.m e } J U 3.    ",
"    3.#.X.c v c ] ;.0.d.s.s.s.s.s.s.s.d.a.;.8.| z j r -.T c.    ",
"    a.9.N B B B x 6.a.a.a.a.a.a.a.a.a.<.;.-.8.B C v s d @.I.    ",
"    H.[ x V V V V [ d.0.0.a.a.a.a.a.,.-.-.M.G V Z D V y H U.    ",
"    e.y x B V Z V x y.0.0.0.0.0.0.;.-.-.8.e.C Z A A V V x O.    ",
"      h < < e p a a E W 1 q u q 2 # # + m.( Q M f i , t >       ",
"          n 9 : : ; = w > $ * % o $ . 3 > * * & * n Q           ",
"              D B 0 8 5 r * - $ & X @ a = g 9 F *.              ",
"                  >.@.v 6 g & - o X i w k ~ 6.                  ",
"                      <.) 7 4 $ X > g c  .                      ",
"                          P C O X h G                           ",
"                              / r                               ",
"                                                                ",
"                                                                "
};
