/* XPM */
static char *_8a2e5c09f894ba5db25ac58d9f7265fq56Y9MCxuimFlDU9[] = {
/* columns rows colors chars-per-pixel */
"32 32 11 1 ",
"  c None",
". c black",
"X c #707888",
"o c #505060",
"O c #949EA8",
"+ c #563A3F",
"@ c #79584F",
"# c #94785C",
"$ c #302639",
"% c #D5D5D5",
"& c #302639",
/* pixels */
"      XXXXXXXXXXXXXXXXXX        ",
"     oOOOOOOOOOOOOOOOOOOo       ",
"    oOOoXXXXXXooXXXXXXoOOo      ",
"    oOO+@++@@@++@@@@@@+OOo      ",
"    oOO@#@@###@@###@##@OOo      ",
"    oOO@#@####@@###@###OOo      ",
"    oOO@#@####@@#######OOo      ",
"    oOO@######@@#######OOo      ",
"    oOX@######@@#######XOo      ",
"   oOO+@######@@#######@OOo     ",
"   oOO@#######@@########OOo     ",
"   oOO@#######@@########OOo     ",
"   oOO@#######@@####@###OOo     ",
"   oOO@#######@@####@###OOo     ",
"   oOO@###%@O#@@#%@O####OOo     ",
"   oOO@###@OO#@@#OO@####OOo     ",
"   oOO@####@@#@@#@@#####OOo     ",
"   oOO@#######@@########OOo     ",
"   oOO@#######@@########OOo     ",
"   oOO@#######@@########OOo     ",
"   oOX@######@@@@#######XOo     ",
"  oOO+@###@##@++@####@##@OOo    ",
"  oOO@##@#@##@++@####@##@OOo    ",
"  oOO@@@+@+@@++++@@@@+@@@OOo    ",
"  oOOOOOOOOOOOOOOOOOOOOOOOOo    ",
"  oXXOOOOOOOOOOOOOOOOOOOOXXo    ",
"  oXXXXXXXXXXXXXXXXXXXXXXXXo    ",
"  &ooXXXXXXXXXXXXXXXXXXXXoo&    ",
"  &&oooooooooooooooooooooo&&    ",
"    &&&&&&&&&&&&&&&&&&&&&&      ",
"                                ",
"                                "
};
