/* XPM */
static char *exit_closed1720012935[] = {
/* columns rows colors chars-per-pixel */
"27 32 9 1 ",
"  c None",
". c #302639",
"X c #563A3F",
"o c #79584F",
"O c #505060",
"+ c #94785C",
"@ c #707888",
"# c #949EA8",
"$ c #D5D5D5",
/* pixels */
"    @@@@@@@@@@@@@@@@@@     ",
"   O##################O    ",
"  O##O@@@@@@OO@@@@@@O##O   ",
"  O##XoXXoooXXooooooX##O   ",
"  O##o+oo+++oo+++o++o##O   ",
"  O##o+o++++oo+++o+++##O   ",
"  O##o+o++++oo+++++++##O   ",
"  O##o++++++oo+++++++##O   ",
"  O#@o++++++oo+++++++@#O   ",
" O##Xo++++++oo+++++++o##O  ",
" O##o+++++++oo++++++++##O  ",
" O##o+++++++oo++++++++##O  ",
" O##o+++++++oo++++o+++##O  ",
" O##o+++++++oo++++o+++##O  ",
" O##o+++$o#+oo+$o#++++##O  ",
" O##o+++o##+oo+##o++++##O  ",
" O##o++++oo+oo+oo+++++##O  ",
" O##o+++++++oo++++++++##O  ",
" O##o+++++++oo++++++++##O  ",
" O##o+++++++oo++++++++##O  ",
" O#@o++++++oooo+++++++@#O  ",
"O##Xo+++o++oXXo++++o++o##O ",
"O##o++o+o++oXXo++++o++o##O ",
"O##oooXoXooXXXXooooXooo##O ",
"O########################O ",
"O@@####################@@O ",
"O@@@@@@@@@@@@@@@@@@@@@@@@O ",
".OO@@@@@@@@@@@@@@@@@@@@OO. ",
"..OOOOOOOOOOOOOOOOOOOOOO.. ",
"  ......................   ",
"                           ",
"                           "
};
