/* XPM */
static char *_ba3417089e84280cb96ec3ffd746ffezBom4QQBBIfcnmBc[] = {
/* columns rows colors chars-per-pixel */
"32 32 3 1 ",
"  c #3ABE41",
". c #6ADD4B",
"X c #29973B",
/* pixels */
"                                ",
"                                ",
"                                ",
"                                ",
"                          ..    ",
"                          ..    ",
"                          ..    ",
"                          ..    ",
"      ..    ..            XX    ",
"      ..    ..            XX    ",
"      ..  ..XX                  ",
"      ..  ..XX                  ",
"      ..  ..                    ",
"      ..  ..                    ",
"      XX  XX                    ",
"      XX  XX                    ",
"                                ",
"                                ",
"                                ",
"                                ",
"  ..                            ",
"  ..                            ",
"                                ",
"                                ",
"              ..    ..          ",
"              ..    ..          ",
"              XX..  ..          ",
"              XX..  ..          ",
"                ..  ..          ",
"                ..  ..          ",
"                XX  XX          ",
"                XX  XX          "
};
