/* XPM */
static char *_b7a0772e99a4e4195976dff72fcf2d3SRMIGotHlhg5oitU[] = {
/* columns rows colors chars-per-pixel */
"13 22 12 1 ",
"  c black",
". c #432E27",
"X c #6A4834",
"o c gray9",
"O c #BFA787",
"+ c #E8D4B2",
"@ c #882E2E",
"# c #C43C3C",
"$ c #F8F8F8",
"% c None",
"& c #5586B9",
"* c #65659B",
/* pixels */
"     ..      ",
"    .XX..    ",
"  ..XX.oX..  ",
" .XXXXX..XX. ",
" ...XXXoo.X. ",
"o.OOooo..XX.o",
"oO+++OO.XX..o",
"o++++++..X..o",
"o+++o++O....o",
" o++o++O...o ",
" o+++++O..Oo ",
"  o+++OOOOo  ",
"   oOO@#oo   ",
"   o###ooo   ",
"   o##o+Oo   ",
"   o$.o++o   ",
"   o@@@ooo   ",
"   %o&**o    ",
" %%%oXXXo%%  ",
"%%%%%ooo%%%% ",
" %%%%%%%%%%  ",
"   %%%%%%    "
};
