/* XPM */
static char *_46a0fa08d5a40e5f9aa85fe1be8e8606EKRfJYL8jEiT7IP[] = {
/* columns rows colors chars-per-pixel */
"32 32 14 1 ",
"  c None",
". c black",
"X c #432E27",
"o c #6A4834",
"O c gray9",
"+ c #BFA787",
"@ c #E8D4B2",
"# c #681C1C",
"$ c #C43C3C",
"% c #882E2E",
"& c #F8F8F8",
"* c #5586B9",
"= c #65659B",
"- c #2A2B35",
/* pixels */
"                                ",
"                                ",
"                                ",
"                                ",
"                                ",
"                XX              ",
"            XXXXooXXO           ",
"          XXooooXOoooO          ",
"         XoooooooooXO           ",
"         XooXXXXXoooXO          ",
"        XoXX+++++XXXXXO         ",
"        XX++@@@@@++XXXO         ",
"        OX+@@@@@@@@+OO          ",
"        O+@@O@@@@O@@+O          ",
"         O@@O@@@@O@@O           ",
"         O+@@@@@@@@+O           ",
"          O+@@@@@@+O            ",
"         #$$$+@@+$$$O           ",
"         #$%$$$$$$%$O           ",
"        O@+O%$$$$%O+@O          ",
"        O++OXX&&XXO++O          ",
"         OOO%%%%%%OOO           ",
"           O*=OO=*O             ",
"           OooOOooO             ",
"            OO  OO              ",
"                                ",
"                                ",
"                                ",
"                                ",
"                                ",
"                                ",
"                                "
};
