/* XPM */
static char *b05f6bd553c24fb4ee56efefcff95a8eexwRhyR0ZbGqJ8DR[] = {
/* columns rows colors chars-per-pixel */
"15 23 12 1 ",
"  c black",
". c #432E27",
"X c #6A4834",
"o c gray9",
"O c #BFA787",
"+ c #E8D4B2",
"@ c #681C1C",
"# c #C43C3C",
"$ c #882E2E",
"% c #5586B9",
"& c #65659B",
"* c None",
/* pixels */
"     ..        ",
"  ...XXoo..    ",
" .XX.ooXXXX..  ",
"  o.XXXXXXXXX. ",
" .XXXXXXXXXXX. ",
".XXXXXXXXXXXX.o",
"..XXXXXXXXXX..o",
" o.XXXXXXXXX..o",
" o...XXXXX....o",
"  o..........o ",
"  oO........Oo ",
"   oO+....+Oo  ",
"  @###O++O###o ",
"  @#$######$#o ",
" o+Oo$####$oO+o",
" oOOo......oOOo",
"  ooo$$$$$$ooo ",
"    o%&oo&%o   ",
"    oXXooXXo   ",
"   **oo**oo**  ",
"  ************ ",
"   **********  ",
"     ******    "
};
