/* XPM */
static char *_9d6b35f2997498d993c566c85f68fc6JzjOh7OEmsQZQ8wF[] = {
/* columns rows colors chars-per-pixel */
"32 32 13 1 ",
"  c None",
". c black",
"X c #432E27",
"o c #6A4834",
"O c gray9",
"+ c #BFA787",
"@ c #E8D4B2",
"# c #C43C3C",
"$ c #882E2E",
"% c #F8F8F8",
"& c #65659B",
"* c #5586B9",
"= c #2A2B35",
/* pixels */
"                                ",
"                                ",
"                                ",
"                                ",
"                                ",
"                  X             ",
"             XXXXXoO            ",
"           XXoooooOO            ",
"          XoooooooooO           ",
"          XooooooXXXO           ",
"         XoooooXX+++XO          ",
"         XooooX++@@@+O          ",
"         XoooXX@@@@@@O          ",
"         OXooX+@@O@@@O          ",
"          OXXX+@@O@@O           ",
"          O+XX+@@@@@O           ",
"           O++++@@@O            ",
"            OO#$++O             ",
"            OOO###O             ",
"            O+@O##O             ",
"            O@@OX%O             ",
"            OOO$$$O             ",
"             O&&*O              ",
"             OoooO              ",
"              OOO               ",
"                                ",
"                                ",
"                                ",
"                                ",
"                                ",
"                                ",
"                                "
};
