/* XPM */
static char *d90a2d87e7574f05823072b84e776df0tRQSB6XWWwRpTkiu[] = {
/* columns rows colors chars-per-pixel */
"32 32 13 1 ",
"  c None",
". c black",
"X c #432E27",
"o c #6A4834",
"O c gray9",
"+ c #BFA787",
"@ c #E8D4B2",
"# c #882E2E",
"$ c #C43C3C",
"% c #F8F8F8",
"& c #2A2B35",
"* c #5586B9",
"= c #65659B",
/* pixels */
"                                ",
"                                ",
"                                ",
"                                ",
"                                ",
"              XX                ",
"             XooXX              ",
"           XXooXOoXX            ",
"          XoooooXXooX           ",
"          XXXoooOOXoX           ",
"         OX++OOOXXooXO          ",
"         O+@@@++XooXXO          ",
"         O@@@@@@XXoXXO          ",
"         O@@@O@@+XXXXO          ",
"          O@@O@@+XXXO           ",
"          O@@@@@+XX+O           ",
"           O@@@++++O            ",
"            O++#$OO             ",
"            O$$$OOO             ",
"            O$$O@+O             ",
"            O%XO@@O             ",
"            O###OOO             ",
"             O*==O              ",
"             OoooO              ",
"              OOO               ",
"                                ",
"                                ",
"                                ",
"                                ",
"                                ",
"                                ",
"                                "
};
