/* XPM */
static char *_890a8187f7b491ebe44e7ea05bc23a3TUfaXYxpzQJ3HiOO[] = {
/* columns rows colors chars-per-pixel */
"15 22 13 1 ",
"  c black",
". c #432E27",
"X c #6A4834",
"o c gray9",
"O c #BFA787",
"+ c #E8D4B2",
"@ c #681C1C",
"# c #C43C3C",
"$ c #882E2E",
"% c #F8F8F8",
"& c #5586B9",
"* c #65659B",
"= c None",
/* pixels */
"        ..     ",
"    ....XX..o  ",
"  ..XXXX.oXXXo ",
" .XXXXXXXXX.o  ",
" .XX.....XXX.o ",
".X..OOOOO.....o",
"..OO+++++OO...o",
"o.O++++++++Ooo ",
"oO++o++++o++Oo ",
" o++o++++o++o  ",
" oO++++++++Oo  ",
"  oO++++++Oo   ",
" @###O++O###o  ",
" @#$######$#o  ",
"o+Oo$####$oO+o ",
"oOOo..%%..oOOo ",
" ooo$$$$$$ooo  ",
"   o&*oo*&o    ",
"  =oXXooXXo=   ",
" ===oo==oo===  ",
"  ==========   ",
"    ======     "
};
