/* XPM */
static char *_f2ecf3d0cc944288fea15a4a02f14c4hKupqGfDazRecnS0[] = {
/* columns rows colors chars-per-pixel */
"13 22 12 1 ",
"  c black",
". c #432E27",
"X c #6A4834",
"o c gray9",
"O c #BFA787",
"+ c #E8D4B2",
"@ c #C43C3C",
"# c #882E2E",
"$ c #F8F8F8",
"% c #65659B",
"& c #5586B9",
"* c None",
/* pixels */
"         .   ",
"    .....Xo  ",
"  ..XXXXXoo  ",
" .XXXXXXXXXo ",
" .XXXXXX...o ",
".XXXXX..OOO.o",
".XXXX.OO+++Oo",
".XXX..++++++o",
"o.XX.O++o+++o",
" o...O++o++o ",
" oO..O+++++o ",
"  oOOOO+++o  ",
"   oo@#OOo   ",
"   ooo@@@o   ",
"   oO+o@@o   ",
"   o++o.$o   ",
"   ooo###o   ",
"    o%%&o*   ",
"  **oXXXo*** ",
" ****ooo*****",
"  ********** ",
"    ******   "
};
