/* XPM */
static char *_d02612bd81d4aa1aa04de06a3b265b1KvjeVNtddkJgrrMk[] = {
/* columns rows colors chars-per-pixel */
"32 32 13 1 ",
"  c None",
". c black",
"X c #432E27",
"o c #6A4834",
"O c gray9",
"+ c #BFA787",
"@ c #E8D4B2",
"# c #681C1C",
"$ c #C43C3C",
"% c #882E2E",
"& c #5586B9",
"* c #65659B",
"= c #2A2B35",
/* pixels */
"                                ",
"                                ",
"                                ",
"                                ",
"             XX                 ",
"          XXXooOOXX             ",
"         XooXOOooooXX           ",
"          OXoooooooooX          ",
"         XoooooooooooX          ",
"        XooooooooooooXO         ",
"        XXooooooooooXXO         ",
"         OXoooooooooXXO         ",
"         OXXXoooooXXXXO         ",
"          OXXXXXXXXXXO          ",
"          O+XXXXXXXX+O          ",
"           O+@XXXX@+O           ",
"          #$$$+@@+$$$O          ",
"          #$%$$$$$$%$O          ",
"         O@+O%$$$$%O+@O         ",
"         O++OXXXXXXO++O         ",
"          OOO%%%%%%OOO          ",
"            O&*OO*&O            ",
"            OooOOooO            ",
"             OO  OO             ",
"                                ",
"                                ",
"                                ",
"                                ",
"                                ",
"                                ",
"                                ",
"                                "
};
