/* XPM */
static char * rock_32_gimp_xpm[] = {
"32 32 10 1",
" 	c None",
".	c #000000",
"+	c #79584F",
"@	c #94785C",
"#	c #BC9A78",
"$	c #331F29",
"%	c #563A3F",
"&	c #2ECA35",
"*	c #328E41",
"=	c #201729",
"                                ",
"                                ",
"        ++++++                  ",
"        ++++++                  ",
"      ++@@@@@@++++++++++        ",
"      ++@@@@@@++++++++++        ",
"    ++@@@@@@@@@@##++++@@++      ",
"    ++@@@@@@@@@@##++++@@++      ",
"    ++@@@@@@@@@@@@@@##++@@++    ",
"    ++@@@@@@@@@@@@@@##++@@++    ",
"    ++####@@@@@@@@@@##++@@@@++  ",
"    ++####@@@@@@@@@@##++@@@@++  ",
"    $$++++##@@@@@@@@@@@@@@@@++  ",
"    $$++++##@@@@@@@@@@@@@@@@++  ",
"  $$$$%%++++####@@@@@@@@@@@@++  ",
"  $$$$%%++++####@@@@@@@@@@@@++  ",
"  &&%%%%%%++++++####@@@@@@##++  ",
"  &&%%%%%%++++++####@@@@@@##++  ",
"&&$$%%%%%%%%%%++++++########++  ",
"&&$$%%%%%%%%%%++++++########++  ",
"**$$$$$$$$%%++++%%++++++++%%&&  ",
"**$$$$$$$$%%++++%%++++++++%%&&  ",
"  $$$$&&%%%%%%%%$$%%%%&&%%$$**  ",
"  $$$$&&%%%%%%%%$$%%%%&&%%$$**  ",
"    $$**$$$$$$&&$$$$$$**$$      ",
"    $$**$$$$$$&&$$$$$$**$$      ",
"              **      **        ",
"              **      **        ",
"                                ",
"                                ",
"                                ",
"                                "};
