/* XPM */
static char *c0950daeafdf4f2ca8f03f87c08c049aZWoYSedkjDP8jsuP[] = {
/* columns rows colors chars-per-pixel */
"32 32 9 1 ",
"  c black",
". c #79584F",
"X c #94785C",
"o c #BC9A78",
"O c #331F29",
"+ c #563A3F",
"@ c #2ECA35",
"# c #328E41",
"$ c None",
/* pixels */
"                                ",
"                                ",
"        ......                  ",
"        ......                  ",
"      ..XXXXXX..........        ",
"      ..XXXXXX..........        ",
"    ..XXXXXXXXXXoo....XX..      ",
"    ..XXXXXXXXXXoo....XX..      ",
"    ..XXXXXXXXXXXXXXoo..XX..    ",
"    ..XXXXXXXXXXXXXXoo..XX..    ",
"    ..ooooXXXXXXXXXXoo..XXXX..  ",
"    ..ooooXXXXXXXXXXoo..XXXX..  ",
"    OO....ooXXXXXXXXXXXXXXXX..  ",
"    OO....ooXXXXXXXXXXXXXXXX..  ",
"  OOOO++....ooooXXXXXXXXXXXX..  ",
"  OOOO++....ooooXXXXXXXXXXXX..  ",
"  @@++++++......ooooXXXXXXoo..  ",
"  @@++++++......ooooXXXXXXoo..  ",
"@@OO++++++++++......oooooooo..  ",
"@@OO++++++++++......oooooooo..  ",
"##OOOOOOOO++....++........++@@  ",
"##OOOOOOOO++....++........++@@  ",
"  OOOO@@++++++++OO++++@@++OO##$$",
"  OOOO@@++++++++OO++++@@++OO##$$",
"    OO##OOOOOO@@OOOOOO##OO$$$$$$",
"    OO##OOOOOO@@OOOOOO##OO$$$$$$",
"      $$$$$$$$##$$$$$$##$$$$$$$$",
"      $$$$$$$$##$$$$$$##$$$$$$$$",
"            $$$$$$$$$$$$$$$$    ",
"            $$$$$$$$$$$$$$$$    ",
"                                ",
"                                "
};
